# Blender 3.6.4
# www.blender.org
mtllib HANGAR.mtl
o Cube
v -5.257698 -5.257698 5.257698
v -5.257698 5.257698 5.257698
v -5.257698 -5.257698 -5.257698
v -5.257698 5.257698 -5.257698
v 5.257698 -4.939519 4.939519
v 5.257698 4.939519 4.939519
v 5.257698 -4.939519 -4.939519
v 5.257698 4.939519 -4.939519
v 5.257698 5.257698 -5.257698
v 5.257698 -5.257698 -5.257698
v 5.257698 -5.257698 5.257698
v 5.257698 5.257698 5.257698
v 5.257698 -4.939519 4.939519
v 5.257698 4.939519 4.939519
v 5.257698 -4.939519 -4.939519
v 5.257698 4.939519 -4.939519
v 5.257698 -4.939519 4.939519
v 5.257698 4.939519 4.939519
v 5.257698 -4.939519 -4.939519
v 5.257698 4.939519 -4.939519
v -4.971915 -4.939519 4.939519
v -4.971915 4.939519 4.939519
v -4.971915 -4.939519 -4.939519
v -4.971915 4.939519 -4.939519
vn -1.0000 -0.0000 -0.0000
vn -0.0000 -0.0000 -1.0000
vn -0.0000 1.0000 -0.0000
vn -0.0000 -0.0000 1.0000
vn -0.0000 -1.0000 -0.0000
vn 1.0000 -0.0000 -0.0000
vt 0.375000 0.000000
vt 0.625000 0.000000
vt 0.625000 0.250000
vt 0.375000 0.250000
vt 0.625000 0.500000
vt 0.375000 0.500000
vt 0.617435 0.507565
vt 0.617435 0.742435
vt 0.375000 0.750000
vt 0.625000 0.750000
vt 0.625000 1.000000
vt 0.375000 1.000000
vt 0.125000 0.500000
vt 0.125000 0.750000
vt 0.875000 0.500000
vt 0.875000 0.750000
vt 0.382565 0.507565
vt 0.382565 0.742435
s 0
f 1/1/1 2/2/1 4/3/1 3/4/1
f 3/4/2 4/3/2 9/5/2 10/6/2
f 8/7/3 6/8/3 14/8/3 16/7/3
f 11/9/4 12/10/4 2/11/4 1/12/4
f 3/13/5 10/6/5 11/9/5 1/14/5
f 9/5/3 4/15/3 2/16/3 12/10/3
f 8/7/6 7/17/6 10/6/6 9/5/6
f 7/17/6 5/18/6 11/9/6 10/6/6
f 6/8/6 8/7/6 9/5/6 12/10/6
f 5/18/6 6/8/6 12/10/6 11/9/6
f 15/17/3 16/7/3 20/7/3 19/17/3
f 7/17/3 8/7/3 16/7/3 15/17/3
f 6/8/3 5/18/3 13/18/3 14/8/3
f 5/18/3 7/17/3 15/17/3 13/18/3
f 18/8/2 17/18/2 21/18/2 22/8/2
f 14/8/3 13/18/3 17/18/3 18/8/3
f 13/18/3 15/17/3 19/17/3 17/18/3
f 16/7/3 14/8/3 18/8/3 20/7/3
f 23/17/6 24/7/6 22/8/6 21/18/6
f 17/18/3 19/17/3 23/17/3 21/18/3
f 20/7/5 18/8/5 22/8/5 24/7/5
f 19/17/4 20/7/4 24/7/4 23/17/4
